<?xml version="1.0" encoding="UTF-8"?>
<svg width="256px" height="256px" viewBox="0 0 256 256" version="1.1" xmlns="http://www.w3.org/2000/svg" xmlns:xlink="http://www.w3.org/1999/xlink">
    <!-- Generator: Sketch 53.2 (72643) - https://sketchapp.com -->
    <title>favicon</title>
    <desc>Created with Sketch.</desc>
    <g id="favicon" stroke="none" stroke-width="1" fill="none" fill-rule="evenodd">
        <path d="M128,256 C57.307552,256 0,198.692448 0,128 C0,57.307552 57.307552,0 128,0 C198.692448,0 256,57.307552 256,128 C256,198.692448 198.692448,256 128,256 Z M179.992,172.6 L205,172.6 C216.690725,172.6 225.586636,170.888021 231.688,166.664 C237.789364,162.439979 240.84,156.402706 240.84,148.552 C240.84,143.005306 239.389348,138.333352 236.488,134.536 C233.586652,130.738648 229.576026,128.029341 224.456,126.408 C228.210685,124.445324 231.133323,121.75735 233.224,118.344 C235.314677,114.93065 236.36,111.048022 236.36,106.696 C236.36,99.5279642 233.437363,93.8533542 227.592,89.672 C221.746637,85.4906458 212.922721,83 202,83 L179.736,83 L162.712,83 L129.688,138.68 L96.152,83 L79,83 L20,172.6 L40,172.6 L79,112 L79,172.6 L98.456,172.6 L98.456,119.992 L124.696,163.128 L134.04,163.128 L160.408,118.84 L160.536,172.6 L179.992,172.6 Z M179.948526,157.384 L179.885257,135.24 L203.464,135.24 C214.472055,135.24 219.976,138.951963 219.976,146.376 C219.976,150.130685 218.589347,152.903991 215.816,154.696 C213.042653,156.488009 208.925361,157.384 203.464,157.384 L179.948526,157.384 Z M179.842103,120.136 L179.78176,99.016 L199.88,99.016 C205.000026,99.016 208.882653,99.8906579 211.528,101.64 C214.173347,103.389342 215.496,106.013316 215.496,109.512 C215.496,113.010684 214.173347,115.655991 211.528,117.448 C208.882653,119.240009 205.000026,120.136 199.88,120.136 L179.842103,120.136 Z" id="Combined-Shape" fill="#FE7368"></path>
    </g>
</svg>